<svg width="96" height="39" viewBox="0 0 96 39" fill="none" xmlns="http://www.w3.org/2000/svg">
<g filter="url(#filter0_d_951_1763)">
<path d="M4.81469 24.8V19.28L17.4547 1.2H25.0947V18.88H28.3747V24.8H25.0947V30H18.2547V24.8H4.81469ZM18.7347 8.72L12.0147 18.88H18.7347V8.72ZM53.485 6.76H41.005V12.28C41.5383 11.6933 42.285 11.2133 43.245 10.84C44.205 10.4667 45.245 10.28 46.365 10.28C48.365 10.28 50.0183 10.7333 51.325 11.64C52.6583 12.5467 53.6317 13.72 54.245 15.16C54.8583 16.6 55.165 18.16 55.165 19.84C55.165 22.96 54.285 25.44 52.525 27.28C50.765 29.0933 48.285 30 45.085 30C42.9517 30 41.0983 29.64 39.525 28.92C37.9517 28.1733 36.7383 27.1467 35.885 25.84C35.0317 24.5333 34.565 23.0267 34.485 21.32H41.165C41.325 22.1467 41.7117 22.84 42.325 23.4C42.9383 23.9333 43.7783 24.2 44.845 24.2C46.0983 24.2 47.0317 23.8 47.645 23C48.2583 22.2 48.565 21.1333 48.565 19.8C48.565 18.4933 48.245 17.4933 47.605 16.8C46.965 16.1067 46.0317 15.76 44.805 15.76C43.8983 15.76 43.1517 15.9867 42.565 16.44C41.9783 16.8667 41.5917 17.44 41.405 18.16H34.805V0.76H53.485V6.76ZM59.5806 8.16C59.5806 6 60.194 4.33333 61.4206 3.16C62.674 1.98667 64.2873 1.4 66.2606 1.4C68.234 1.4 69.834 1.98667 71.0606 3.16C72.2873 4.33333 72.9006 6 72.9006 8.16C72.9006 10.32 72.2873 11.9867 71.0606 13.16C69.834 14.3333 68.234 14.92 66.2606 14.92C64.2873 14.92 62.674 14.3333 61.4206 13.16C60.194 11.9867 59.5806 10.32 59.5806 8.16ZM86.7406 1.84L71.3406 30H64.7406L80.1406 1.84H86.7406ZM66.2206 5.4C64.9406 5.4 64.3006 6.32 64.3006 8.16C64.3006 9.97333 64.9406 10.88 66.2206 10.88C66.834 10.88 67.314 10.6533 67.6606 10.2C68.0073 9.74667 68.1806 9.06667 68.1806 8.16C68.1806 6.32 67.5273 5.4 66.2206 5.4ZM78.6206 23.68C78.6206 21.52 79.234 19.8533 80.4606 18.68C81.6873 17.5067 83.2873 16.92 85.2606 16.92C87.234 16.92 88.834 17.5067 90.0606 18.68C91.2873 19.8533 91.9006 21.52 91.9006 23.68C91.9006 25.84 91.2873 27.5067 90.0606 28.68C88.834 29.8533 87.234 30.44 85.2606 30.44C83.2873 30.44 81.6873 29.8533 80.4606 28.68C79.234 27.5067 78.6206 25.84 78.6206 23.68ZM85.2206 20.92C84.6073 20.92 84.1273 21.1467 83.7806 21.6C83.4606 22.0533 83.3006 22.7467 83.3006 23.68C83.3006 25.4933 83.9406 26.4 85.2206 26.4C85.834 26.4 86.314 26.1733 86.6606 25.72C87.0073 25.2667 87.1806 24.5867 87.1806 23.68C87.1806 22.7733 87.0073 22.0933 86.6606 21.64C86.314 21.16 85.834 20.92 85.2206 20.92Z" fill="#060606" fill-opacity="0.8" shape-rendering="crispEdges"/>
</g>
<defs>
<filter id="filter0_d_951_1763" x="0.814697" y="0.76001" width="95.0859" height="37.68" filterUnits="userSpaceOnUse" color-interpolation-filters="sRGB">
<feFlood flood-opacity="0" result="BackgroundImageFix"/>
<feColorMatrix in="SourceAlpha" type="matrix" values="0 0 0 0 0 0 0 0 0 0 0 0 0 0 0 0 0 0 127 0" result="hardAlpha"/>
<feOffset dy="4"/>
<feGaussianBlur stdDeviation="2"/>
<feComposite in2="hardAlpha" operator="out"/>
<feColorMatrix type="matrix" values="0 0 0 0 0 0 0 0 0 0 0 0 0 0 0 0 0 0 0.25 0"/>
<feBlend mode="normal" in2="BackgroundImageFix" result="effect1_dropShadow_951_1763"/>
<feBlend mode="normal" in="SourceGraphic" in2="effect1_dropShadow_951_1763" result="shape"/>
</filter>
</defs>
</svg>
