<svg width="67" height="24" viewBox="0 0 67 24" fill="none" xmlns="http://www.w3.org/2000/svg">
<path d="M14.3604 5.57H5.00043V9.71C5.40043 9.27 5.96043 8.91 6.68043 8.63C7.40043 8.35 8.18043 8.21 9.02043 8.21C10.5204 8.21 11.7604 8.55 12.7404 9.23C13.7404 9.91 14.4704 10.79 14.9304 11.87C15.3904 12.95 15.6204 14.12 15.6204 15.38C15.6204 17.72 14.9604 19.58 13.6404 20.96C12.3204 22.32 10.4604 23 8.06043 23C6.46043 23 5.07043 22.73 3.89043 22.19C2.71043 21.63 1.80043 20.86 1.16043 19.88C0.520431 18.9 0.170431 17.77 0.110431 16.49H5.12043C5.24043 17.11 5.53043 17.63 5.99043 18.05C6.45043 18.45 7.08043 18.65 7.88043 18.65C8.82043 18.65 9.52043 18.35 9.98043 17.75C10.4404 17.15 10.6704 16.35 10.6704 15.35C10.6704 14.37 10.4304 13.62 9.95043 13.1C9.47043 12.58 8.77043 12.32 7.85043 12.32C7.17043 12.32 6.61043 12.49 6.17043 12.83C5.73043 13.15 5.44043 13.58 5.30043 14.12H0.350431V1.07H14.3604V5.57ZM22.2622 23.24C21.3622 23.24 20.6222 22.98 20.0422 22.46C19.4822 21.92 19.2022 21.26 19.2022 20.48C19.2022 19.68 19.4822 19.01 20.0422 18.47C20.6222 17.93 21.3622 17.66 22.2622 17.66C23.1422 17.66 23.8622 17.93 24.4222 18.47C25.0022 19.01 25.2922 19.68 25.2922 20.48C25.2922 21.26 25.0022 21.92 24.4222 22.46C23.8622 22.98 23.1422 23.24 22.2622 23.24ZM28.7189 11.75C28.7189 8.31 29.3789 5.6 30.6989 3.62C32.0389 1.64 34.1889 0.649998 37.1489 0.649998C40.1089 0.649998 42.2489 1.64 43.5689 3.62C44.9089 5.6 45.5789 8.31 45.5789 11.75C45.5789 15.23 44.9089 17.96 43.5689 19.94C42.2489 21.92 40.1089 22.91 37.1489 22.91C34.1889 22.91 32.0389 21.92 30.6989 19.94C29.3789 17.96 28.7189 15.23 28.7189 11.75ZM40.5389 11.75C40.5389 9.73 40.3189 8.18 39.8789 7.1C39.4389 6 38.5289 5.45 37.1489 5.45C35.7689 5.45 34.8589 6 34.4189 7.1C33.9789 8.18 33.7589 9.73 33.7589 11.75C33.7589 13.11 33.8389 14.24 33.9989 15.14C34.1589 16.02 34.4789 16.74 34.9589 17.3C35.4589 17.84 36.1889 18.11 37.1489 18.11C38.1089 18.11 38.8289 17.84 39.3089 17.3C39.8089 16.74 40.1389 16.02 40.2989 15.14C40.4589 14.24 40.5389 13.11 40.5389 11.75ZM49.1893 11.75C49.1893 8.31 49.8493 5.6 51.1693 3.62C52.5093 1.64 54.6593 0.649998 57.6193 0.649998C60.5793 0.649998 62.7193 1.64 64.0393 3.62C65.3793 5.6 66.0493 8.31 66.0493 11.75C66.0493 15.23 65.3793 17.96 64.0393 19.94C62.7193 21.92 60.5793 22.91 57.6193 22.91C54.6593 22.91 52.5093 21.92 51.1693 19.94C49.8493 17.96 49.1893 15.23 49.1893 11.75ZM61.0093 11.75C61.0093 9.73 60.7893 8.18 60.3493 7.1C59.9093 6 58.9993 5.45 57.6193 5.45C56.2393 5.45 55.3293 6 54.8893 7.1C54.4493 8.18 54.2293 9.73 54.2293 11.75C54.2293 13.11 54.3093 14.24 54.4693 15.14C54.6293 16.02 54.9493 16.74 55.4293 17.3C55.9293 17.84 56.6593 18.11 57.6193 18.11C58.5793 18.11 59.2993 17.84 59.7793 17.3C60.2793 16.74 60.6093 16.02 60.7693 15.14C60.9293 14.24 61.0093 13.11 61.0093 11.75Z" fill="#D74545" fill-opacity="0.87"/>
</svg>
