<svg width="146" height="155" viewBox="0 0 146 155" fill="none" xmlns="http://www.w3.org/2000/svg">
<path d="M137.893 36.0817C138.105 35.9599 138.281 35.7854 138.403 35.5757C138.525 35.3659 138.589 35.1283 138.589 34.8865C138.589 34.6446 138.525 34.407 138.403 34.1973C138.281 33.9876 138.105 33.8131 137.893 33.6912L84.2869 2.99179C80.857 1.03206 76.9628 0 72.9983 0C69.0337 0 65.1395 1.03206 61.7096 2.99179L8.11426 33.6912C7.90234 33.8131 7.72652 33.9876 7.60433 34.1973C7.48214 34.407 7.41784 34.6446 7.41784 34.8865C7.41784 35.1283 7.48214 35.3659 7.60433 35.5757C7.72652 35.7854 7.90234 35.9599 8.11426 36.0817L72.2981 73.2988C72.514 73.4242 72.76 73.4903 73.0105 73.4903C73.2611 73.4903 73.5071 73.4242 73.723 73.2988L137.893 36.0817ZM2.1058 45.495C1.89172 45.3731 1.6488 45.3092 1.4016 45.3096C1.15439 45.31 0.91168 45.3747 0.697998 45.4972C0.484315 45.6197 0.307243 45.7957 0.184684 46.0073C0.0621248 46.2189 -0.00157399 46.4587 2.95436e-05 46.7023V106.859C0.00532802 109.758 0.780459 112.605 2.24833 115.117C3.71621 117.629 5.82568 119.719 8.36695 121.178L65.2789 154.815C65.4922 154.936 65.7341 155 65.9804 155C66.2267 155 66.4687 154.936 66.6821 154.815C66.8955 154.694 67.0727 154.519 67.196 154.309C67.3193 154.099 67.3844 153.86 67.3846 153.618V83.8226C67.3844 83.5799 67.3194 83.3416 67.1962 83.1315C67.073 82.9214 66.8959 82.7469 66.6827 82.6256L2.1058 45.495ZM78.6154 84.0648V153.6C78.6156 153.843 78.6807 154.082 78.804 154.292C78.9273 154.502 79.1046 154.676 79.3179 154.798C79.5313 154.919 79.7733 154.983 80.0196 154.983C80.2659 154.983 80.5079 154.919 80.7212 154.797L137.63 121.161C140.169 119.704 142.277 117.617 143.746 115.108C145.214 112.599 145.991 109.756 146 106.859V46.7023C145.999 46.4599 145.934 46.2218 145.81 46.0122C145.686 45.8025 145.509 45.6285 145.296 45.5076C145.083 45.3867 144.841 45.3232 144.595 45.3234C144.349 45.3236 144.107 45.3876 143.894 45.5088L79.3173 82.8712C79.1046 82.9923 78.9279 83.1662 78.8047 83.3756C78.6815 83.5851 78.6163 83.8227 78.6154 84.0648Z" fill="#666666"/>
</svg>
